<svg width="192" height="192" viewBox="0 0 192 192" fill="none" xmlns="http://www.w3.org/2000/svg">
  <!-- Midnight Blue Background -->
  <rect width="192" height="192" rx="42" fill="#0A1A3F"/>
  
  <!-- Gold Star Symbol (North Star) -->
  <path d="M96 40L104.472 72.528L136 81L104.472 89.472L96 122L87.528 89.472L56 81L87.528 72.528L96 40Z" fill="#F5C75D" stroke="#F5C75D" stroke-width="2" stroke-linejoin="round"/>
  
  <!-- Stylized S lettermark in white/gold gradient -->
  <path d="M96 92C84 92 74 102 74 114C74 126 84 136 96 136C104 136 110 132 114 126C118 120 118 112 114 106C110 100 104 96 96 96C88 96 82 102 82 110C82 118 88 124 96 124" stroke="white" stroke-width="6" stroke-linecap="round" fill="none"/>
  
  <!-- Connecting dots pattern (community theme) -->
  <circle cx="72" cy="152" r="4" fill="#F5C75D" opacity="0.6"/>
  <circle cx="120" cy="152" r="4" fill="#F5C75D" opacity="0.6"/>
  <circle cx="96" cy="160" r="4" fill="#F5C75D" opacity="0.6"/>
  <line x1="72" y1="152" x2="96" y2="160" stroke="#F5C75D" stroke-width="1.5" opacity="0.4"/>
  <line x1="120" y1="152" x2="96" y2="160" stroke="#F5C75D" stroke-width="1.5" opacity="0.4"/>
</svg>
